# Wavefront OBJ exported by WoW Model Viewer 0.9.0.alpha6

mtllib MeteorCracks.mtl

v -7.811400 0.000004 -6.238108
v -6.097355 0.000004 7.921750
v 6.097355 0.000004 -7.921756
v 7.811400 0.000004 6.238101
v 6.097355 0.000004 -7.921756
v -6.097355 0.000004 7.921750
v -10.380960 0.000000 -8.290133
v -8.103080 0.000000 10.527611
v 8.103080 0.000000 -10.527617
v 10.380960 0.000000 8.290127
v 8.103080 0.000000 -10.527617
v -8.103080 0.000000 10.527611
# 12 vertices


vt 0.000000 1.000000
vt 0.000000 0.000000
vt 1.000000 1.000000
vt 1.000000 0.000000
vt 1.000000 1.000000
vt 0.000000 0.000000
vt 0.000000 1.000000
vt 0.000000 0.000000
vt 1.000000 1.000000
vt 1.000000 0.000000
vt 1.000000 1.000000
vt 0.000000 0.000000
vn 0.000000 1.000000 0.000000
vn 0.000000 1.000000 0.000000
vn 0.000000 1.000000 0.000000
vn 0.000000 1.000000 0.000000
vn 0.000000 1.000000 0.000000
vn 0.000000 1.000000 0.000000
vn 0.000000 1.000000 0.000000
vn 0.000000 1.000000 0.000000
vn 0.000000 1.000000 0.000000
vn 0.000000 1.000000 0.000000
vn 0.000000 1.000000 0.000000
vn 0.000000 1.000000 0.000000

g spells_mage_meteor_impactstate_world.m2_Geoset_001
usemtl spells_mage_meteor_impactstate_world.m2_Geoset_001
s 1
f 1/1/1 2/2/2 3/3/3
f 4/4/4 5/5/5 6/6/6
# 2 triangles in group

g spells_mage_meteor_impactstate_world.m2_Geoset_002
usemtl spells_mage_meteor_impactstate_world.m2_Geoset_002_Lum
s 1
f 7/7/7 8/8/8 9/9/9
f 10/10/10 11/11/11 12/12/12
# 2 triangles in group

# 4 triangles total

